<svg width="9" height="9" viewBox="0 0 9 9" fill="none" xmlns="http://www.w3.org/2000/svg">
<path d="M0.149588 7.95249C0.243942 8.04447 0.371172 8.09488 0.502921 8.09248C0.634273 8.09274 0.760726 8.04264 0.856254 7.95249L7.07625 1.72663V7.09915C7.07625 7.37529 7.30011 7.59915 7.57625 7.59915C7.71055 7.6028 7.84053 7.55151 7.93616 7.45714C8.03178 7.36277 8.08479 7.23349 8.08292 7.09915V0.611001C8.10024 0.534938 8.09984 0.454584 8.07984 0.376293C8.0346 0.199137 7.89627 0.0608044 7.71911 0.0155619C7.64082 -0.00443201 7.56047 -0.00483597 7.48441 0.0124856H0.996254C0.720112 0.0124856 0.496254 0.236343 0.496254 0.512486C0.496254 0.788628 0.720112 1.01249 0.996254 1.01249H6.37625L0.149588 7.23915C0.0539 7.33316 0 7.46168 0 7.59582C0 7.72996 0.0539 7.85848 0.149588 7.95249Z" fill="white"/>
</svg>
