<svg width="40" height="40" viewBox="0 0 40 40" fill="none" xmlns="http://www.w3.org/2000/svg">
<rect width="40" height="40" rx="20" fill="black"/>
<path d="M26.7087 19.5583L20.8754 13.725C20.7146 13.5687 20.4827 13.51 20.2669 13.5711C20.0512 13.6322 19.8844 13.8037 19.8294 14.0211C19.7744 14.2385 19.8396 14.4687 20.0004 14.625L24.7587 19.375H13.7337C13.3885 19.375 13.1087 19.6548 13.1087 20C13.1087 20.3452 13.3885 20.625 13.7337 20.625H24.7504L20.0004 25.375C19.8812 25.4911 19.8141 25.6503 19.8141 25.8167C19.8141 25.983 19.8812 26.1423 20.0004 26.2583C20.1152 26.3789 20.2756 26.4454 20.442 26.4417C20.6079 26.4424 20.7671 26.3764 20.8837 26.2583L26.717 20.425C26.9607 20.181 26.9607 19.7857 26.717 19.5417L26.7087 19.5583Z" fill="#8BE149"/>
</svg>
