<svg width="44" height="44" viewBox="0 0 44 44" fill="none" xmlns="http://www.w3.org/2000/svg">
<g opacity="0.6">
<rect x="1" y="1" width="42" height="42" rx="21" stroke="#8BE149" stroke-width="2"/>
<path d="M30.0505 21.47L23.0505 14.47C22.8575 14.2824 22.5792 14.212 22.3203 14.2853C22.0614 14.3586 21.8613 14.5645 21.7953 14.8253C21.7293 15.0862 21.8075 15.3624 22.0005 15.55L27.7105 21.25H14.4805C14.0663 21.25 13.7305 21.5858 13.7305 22C13.7305 22.4142 14.0663 22.75 14.4805 22.75H27.7005L22.0005 28.45C21.8575 28.5893 21.7769 28.7804 21.7769 28.98C21.7769 29.1796 21.8575 29.3707 22.0005 29.51C22.1383 29.6546 22.3307 29.7345 22.5305 29.73C22.7295 29.7309 22.9206 29.6516 23.0605 29.51L30.0605 22.51C30.3529 22.2172 30.3529 21.7428 30.0605 21.45L30.0505 21.47Z" fill="#8BE149"/>
</g>
</svg>
