<svg width="855" height="855" viewBox="0 0 855 855" fill="none" xmlns="http://www.w3.org/2000/svg">
<mask id="path-1-inside-1_4026_82" fill="white">
<path d="M195.02 233.84C158.298 277.939 134.901 331.587 127.568 388.503C120.235 445.419 129.271 503.246 153.616 555.212C177.961 607.178 216.609 651.132 265.033 681.927C313.456 712.722 369.652 729.082 427.038 729.093C484.425 729.103 540.626 712.763 589.061 681.985C637.496 651.208 676.159 607.268 700.523 555.31C724.887 503.353 733.943 445.529 726.631 388.61C719.318 331.692 695.94 278.035 659.234 233.923L658.437 234.586C695.017 278.547 718.315 332.019 725.603 388.743C732.89 445.466 723.865 503.091 699.585 554.87C675.304 606.649 636.774 650.439 588.505 681.11C540.236 711.782 484.228 728.066 427.038 728.056C369.849 728.046 313.846 711.741 265.589 681.052C217.331 650.363 178.816 606.56 154.555 554.772C130.293 502.984 121.288 445.356 128.596 388.635C135.904 331.915 159.221 278.45 195.817 234.503L195.02 233.84Z"/>
</mask>
<path d="M195.02 233.84C158.298 277.939 134.901 331.587 127.568 388.503C120.235 445.419 129.271 503.246 153.616 555.212C177.961 607.178 216.609 651.132 265.033 681.927C313.456 712.722 369.652 729.082 427.038 729.093C484.425 729.103 540.626 712.763 589.061 681.985C637.496 651.208 676.159 607.268 700.523 555.31C724.887 503.353 733.943 445.529 726.631 388.61C719.318 331.692 695.94 278.035 659.234 233.923L658.437 234.586C695.017 278.547 718.315 332.019 725.603 388.743C732.89 445.466 723.865 503.091 699.585 554.87C675.304 606.649 636.774 650.439 588.505 681.11C540.236 711.782 484.228 728.066 427.038 728.056C369.849 728.046 313.846 711.741 265.589 681.052C217.331 650.363 178.816 606.56 154.555 554.772C130.293 502.984 121.288 445.356 128.596 388.635C135.904 331.915 159.221 278.45 195.817 234.503L195.02 233.84Z" stroke="url(#paint0_linear_4026_82)" stroke-width="2" stroke-dasharray="10 6" mask="url(#path-1-inside-1_4026_82)"/>
<rect x="652.5" y="227.5" width="12" height="12" rx="6" fill="white" stroke="black"/>
<rect x="119" y="420" width="13" height="13" rx="6.5" fill="white"/>
<rect x="119.5" y="420.5" width="12" height="12" rx="6" stroke="black" stroke-opacity="0.3"/>
<rect x="189" y="614" width="13" height="13" rx="6.5" fill="white"/>
<rect x="189.5" y="614.5" width="12" height="12" rx="6" stroke="black" stroke-opacity="0.3"/>
<rect x="189" y="227" width="13" height="13" rx="6.5" fill="white"/>
<rect x="189.5" y="227.5" width="12" height="12" rx="6" stroke="black" stroke-opacity="0.3"/>
<rect x="722.5" y="420.5" width="12" height="12" rx="6" fill="white" stroke="black"/>
<rect x="652.5" y="614.5" width="12" height="12" rx="6" fill="white" stroke="black"/>
<defs>
<linearGradient id="paint0_linear_4026_82" x1="694.5" y1="427" x2="321" y2="475.5" gradientUnits="userSpaceOnUse">
<stop stop-color="white"/>
<stop offset="1" stop-color="white" stop-opacity="0.3"/>
</linearGradient>
</defs>
</svg>
